<svg width="573" height="576" viewBox="0 0 573 576" fill="none" xmlns="http://www.w3.org/2000/svg">
<path d="M103.301 154.791C101.527 158.235 97.8161 159.692 94.6241 160.436C90.5454 161.407 86.3274 161.665 82.1981 162.092L79.7978 162.776C79.3437 162.939 78.9212 163.204 78.5558 163.557C78.1897 163.91 77.8876 164.344 77.6666 164.833C77.4449 165.321 77.3094 165.856 77.2663 166.407C77.2233 166.957 77.2746 167.512 77.4164 168.039C78.9016 173.978 80.9447 179.709 83.5091 185.128L79.7091 189.544C78.6324 187.852 78.5818 184.886 77.1378 185.173C75.7508 183.561 74.1041 182.773 72.4004 184.93C69.0691 189.162 69.6074 197.957 74.5031 200.386L73.4074 206.723C73.0293 208.938 72.0027 210.933 70.5017 212.368C69.0001 213.802 67.1178 214.588 65.1741 214.591L66.0164 207.091C60.3164 210.439 53.8501 203.197 54.2998 197.228C54.5911 193.136 53.7931 190.31 51.1901 187.344C51.0191 187.145 52.0641 186.409 51.9058 186.21C51.1711 183.627 51.0698 180.609 51.7981 178.902C53.0648 175.855 56.7951 174.074 55.0788 170.747C54.3258 169.297 53.776 167.717 53.4511 166.066C53.1066 163.877 53.1693 161.628 53.6361 159.469C54.1028 157.311 54.9616 155.294 56.1554 153.554C58.6888 150.021 62.8054 150.971 66.1684 149.719C70.2661 148.247 72.1598 143.147 76.4474 141.572C78.5818 140.784 80.5578 141.145 82.6921 141.712C84.4971 142.198 86.2831 142.742 88.0564 143.39C89.8298 144.038 91.3878 144.575 93.1231 143.971C95.4157 143.235 97.1827 140.748 99.6844 140.726C100.933 140.692 102.154 141.146 103.155 142.014C105.004 145.878 105.017 151.486 103.301 154.791Z" fill="#3FBDF1"/>
<path d="M24.9196 254.446C24.9196 254.446 -44.0313 166.067 57.5109 121.966C63.399 119.457 69.536 117.82 75.7762 117.093C91.9832 115.091 127.811 107.974 131.94 83.9365" stroke="#CCDDE2" stroke-width="4.11" stroke-miterlimit="10"/>
<path d="M314.365 130.724V130.702" stroke="#CCDDE2" stroke-width="4.11" stroke-miterlimit="10"/>
<path d="M133.448 289.855V289.833" stroke="black" stroke-width="4.11" stroke-miterlimit="10"/>
<path d="M79.5382 188.956C78.8631 187.601 78.06 186.336 77.1442 185.188C75.7572 183.576 74.1105 182.789 72.4069 184.945C69.0755 189.177 69.6139 197.972 74.5095 200.401L73.4139 206.738C73.0358 208.953 72.0091 210.948 70.5081 212.383C69.0065 213.817 67.1242 214.603 65.1805 214.606" stroke="black" stroke-width="4.11" stroke-linecap="round" stroke-linejoin="round"/>
<path d="M62.1152 242.647C62.3939 240.189 63.0842 233.734 63.7492 227.581C64.3826 221.877 64.9462 216.386 65.1679 214.576L66.0166 207.091" stroke="black" stroke-width="4.11" stroke-linecap="round" stroke-linejoin="round"/>
<path d="M101.217 168.893C101.217 168.893 93.1295 169.357 91.5652 177.136" stroke="black" stroke-width="4.11" stroke-miterlimit="10"/>
<path d="M104.156 189.449C106.36 189.383 109.222 189.008 110.261 186.41L104.688 179.263C103.328 177.512 102.524 175.274 102.408 172.919C102.186 168.967 102.585 162.696 99.3298 158.523" stroke="black" stroke-width="4.11" stroke-miterlimit="10"/>
<path d="M99.39 179.557C100.303 178.384 100.348 176.704 99.4913 175.805C98.6351 174.905 97.2012 175.127 96.2892 176.3C95.3766 177.473 95.331 179.153 96.1872 180.052C97.0435 180.952 98.4774 180.73 99.39 179.557Z" fill="black"/>
<path d="M98.8422 236.392L94.6432 212.737" stroke="black" stroke-width="4.11" stroke-miterlimit="10"/>
<path d="M205.286 342.853L178.224 368.569C210.784 426.272 186.141 436.863 186.141 436.863C181.36 437.926 176.534 438.681 171.682 439.122C148.147 441.095 124.004 434.036 104.605 418.227C65.3388 386.211 31.1388 322.135 49.3788 266.346C50.9134 261.628 52.7887 257.067 54.9838 252.715C56.8756 248.932 59.2841 245.532 62.1151 242.647C67.0703 237.606 73.1725 234.334 79.6888 233.226C86.2046 232.118 92.8577 233.219 98.8484 236.398C101.142 237.615 103.311 239.126 105.315 240.903C115.568 250.022 124.891 262.983 132.928 276.584C140.064 288.884 146.486 301.724 152.15 315.018C153.714 318.646 155.133 322.076 156.387 325.219C167.755 319.875 177.287 310.8 186.153 300.997C175.431 324.255 205.286 342.853 205.286 342.853Z" fill="#353642"/>
<path d="M186.35 361.665C185.83 362.128 185.292 362.614 184.754 363.078" stroke="black" stroke-width="4.11" stroke-miterlimit="10"/>
<path d="M106.341 263.903C113.518 279.874 120.697 295.875 127.874 311.905C133.289 324.005 142.441 331.475 155.329 325.742C169.351 319.501 180.662 307.57 191.125 295.411C201.588 283.253 212.19 271.624 227.295 268.489C246.82 264.433 265.295 276.798 278.595 292.423C279.618 293.615 280.265 295.173 280.432 296.845C280.598 298.517 280.275 300.207 279.513 301.638C279.024 302.554 278.371 303.337 277.599 303.933C276.826 304.529 275.952 304.925 275.037 305.093C274.12 305.261 273.184 305.198 272.291 304.908C271.398 304.618 270.569 304.108 269.861 303.412C263.559 297.163 253.306 288.125 246.174 288.007" stroke="black" stroke-width="4.11" stroke-miterlimit="10"/>
<path d="M226.718 309.446C228.91 311.146 231.95 313.031 234.483 313.031" stroke="black" stroke-width="4.11" stroke-miterlimit="10"/>
<path d="M254.8 291.107C259.474 293.793 261.178 301.653 257.878 306.349C253.695 312.382 248.452 317.31 242.501 320.804C235.99 324.58 231.81 322.276 225.401 317.669" stroke="black" stroke-width="4.11" stroke-miterlimit="10"/>
<path d="M243.983 298.15C243.983 298.15 253.242 300.814 252.995 311.258C252.979 311.704 252.91 312.144 252.793 312.568" stroke="black" stroke-width="4.11" stroke-miterlimit="10"/>
<path d="M237.441 304.728C237.441 304.728 249.86 314.054 243.951 319.92" stroke="black" stroke-width="4.11" stroke-miterlimit="10"/>
<path d="M477.353 341.278C462.724 388.007 421.766 389.324 417.079 389.324C419.043 384.518 419.575 376.076 415.274 361.283C418.155 356.394 419.671 350.594 419.618 344.668C419.565 338.743 417.945 332.981 414.977 328.163C415.034 328.104 415.065 328.023 415.116 327.964C417.164 327.819 419.196 327.462 421.19 326.897C428.258 324.939 442.191 320.641 453.249 314.591C460.748 310.477 469.494 317.071 468.854 326.691C468.854 326.816 468.854 326.934 468.816 327.073C470.28 327.073 471.723 327.482 473.022 328.268C474.32 329.054 475.436 330.193 476.274 331.588C477.112 332.983 477.648 334.592 477.836 336.279C478.024 337.966 477.859 339.682 477.353 341.278Z" fill="#3FBDF1"/>
<path d="M289.615 450.878C284.687 460.703 277.018 469.071 269.608 476.373C243.521 502.03 209.441 515.057 175.241 515.565C140.927 515.057 106.721 501.985 80.5135 476.557C-2.29477 396.2 12.6709 301.322 26.0659 257.39C26.5376 255.871 27.1763 254.429 27.9659 253.1C29.0132 251.319 30.3729 249.816 31.9557 248.69C33.5384 247.563 35.3082 246.839 37.1493 246.564C44.1792 247.69 50.5632 254.468 49.4359 264.964C49.4359 265.369 49.2966 265.928 49.2649 266.333C31.0375 322.122 65.2502 386.198 104.492 418.214C122.294 432.735 144.094 439.874 165.754 439.411H166.001C167.858 439.366 169.714 439.266 171.568 439.109C183.734 438.079 195.558 434.693 207.269 430.593C221.012 425.817 234.603 420.024 248.334 415.969C253.16 414.541 257.999 413.165 262.863 411.877C265.67 411.208 268.54 410.977 271.4 411.192C288.266 412.517 300.115 429.946 289.615 450.878Z" fill="#D7E8F0"/>
<path d="M293.782 450.878C288.855 460.703 281.179 469.072 273.769 476.373C246.643 503.075 210.853 516.117 175.222 515.565C140.908 515.057 106.702 501.985 80.4945 476.557C-2.29466 396.2 12.671 301.322 26.066 257.39C26.5378 255.871 27.1764 254.429 27.966 253.1C29.0133 251.319 30.373 249.816 31.9558 248.69C33.5385 247.563 35.3088 246.839 37.1492 246.564C44.1792 247.69 50.5632 254.468 49.4359 264.964C49.4359 265.369 49.2965 265.928 49.2649 266.333C31.0376 322.122 65.2502 386.198 104.491 418.214C122.294 432.735 144.094 439.874 165.754 439.411H166.001C169.264 439.47 172.509 439.369 175.735 439.109C187.901 438.079 199.719 434.693 211.436 430.593C225.179 425.817 238.771 420.024 252.501 415.969C257.321 414.541 262.166 413.165 267.024 411.877C268.468 411.534 269.929 411.305 271.4 411.192C290.362 409.713 305.131 428.253 293.782 450.878Z" fill="#D7E8F0"/>
<path d="M180.941 515.43L189.276 529.134C189.276 529.134 239.708 531.416 267.309 558.339C272.413 563.321 269.361 573 262.698 573C261.027 573.006 259.409 572.323 258.132 571.072C251.615 564.712 226.718 544.723 170.402 544.119C115.53 543.523 94.4848 563.255 88.6644 570.446C88.0007 571.258 87.2008 571.904 86.3141 572.343C85.4275 572.782 84.473 573.006 83.5091 573H82.4261C75.5861 573 72.6918 562.961 78.0941 558.088C101.135 537.267 152.783 530.628 152.783 530.628L161.599 515.172" fill="#353642"/>
<path d="M404.134 439.439C404.134 439.439 419.581 456.493 414.761 509.359C414.41 513.134 413.28 516.755 411.468 519.914L409.789 522.858C407.037 527.648 402.887 531.119 398.104 532.632C388.015 535.833 369.712 543.252 358.407 557.31C353.632 563.264 357.185 572.965 364.19 572.965C365.495 572.969 366.782 572.597 367.935 571.883C369.087 571.169 370.07 570.135 370.795 568.872C375.399 560.821 389.339 543.723 422.963 544.084C460.887 544.489 476.163 562.013 481.058 569.564C481.735 570.617 482.613 571.473 483.623 572.063C484.634 572.653 485.748 572.962 486.879 572.965C488.296 572.961 489.682 572.477 490.866 571.572C492.05 570.668 492.982 569.38 493.546 567.869C494.109 566.358 494.282 564.688 494.042 563.065C493.801 561.442 493.159 559.935 492.192 558.73C477.404 540.058 459.316 533.095 449.335 530.512C444.32 529.256 439.89 525.867 436.915 521.01C434.638 517.264 433.342 512.831 433.185 508.248C432.627 491.857 432.336 452.069 441.893 439.454" fill="#353642"/>
<path d="M207.395 430.614C234.559 415.29 264.041 405.237 293.028 395.772C322.2 386.248 351.656 377.938 381.201 370.129C393.006 367.016 404.919 364.242 416.667 360.731" stroke="black" stroke-width="4.11" stroke-miterlimit="10"/>
<path d="M232.881 312.819H232.9H232.913" stroke="black" stroke-width="4.11" stroke-miterlimit="10"/>
<path d="M229.834 310.824C228.131 312.782 222.051 323.24 220.524 325.117C212.139 335.56 203.232 345.42 193.848 354.646C191.486 356.927 188.984 359.282 186.35 361.667C185.83 362.131 185.292 362.616 184.754 363.08C166.894 378.83 143.587 393.992 122.054 384.277C121.484 384.034 120.927 383.754 120.376 383.467C87.3472 366.282 64.2622 323.24 62.2482 281.693C62.1786 280.339 62.1406 278.992 62.1279 277.66C61.9506 266.303 63.3946 254.947 72.7679 248.956" stroke="black" stroke-width="4.11" stroke-miterlimit="10"/>
<path d="M49.4296 266.185L49.5626 264.978C51.6652 245.386 27.7253 238.776 22.0443 257.39C8.65568 301.314 -6.3163 396.17 76.5109 476.541C129.97 528.437 216.522 528.797 269.779 476.372C277.189 469.078 284.858 460.695 289.792 450.869C302.275 426.022 283.212 406.099 261.71 412.215" stroke="black" stroke-width="4.11" stroke-miterlimit="10"/>
<path d="M180.941 515.43L189.276 529.134C189.276 529.134 239.708 531.416 267.309 558.339C272.413 563.321 269.361 573 262.698 573C261.027 573.006 259.409 572.323 258.132 571.072C251.615 564.712 226.718 544.723 170.402 544.119C115.53 543.523 94.4848 563.255 88.6644 570.446C88.0007 571.258 87.2008 571.904 86.3141 572.343C85.4275 572.782 84.473 573.006 83.5091 573H82.4261C75.5861 573 72.6918 562.961 78.0941 558.088C101.135 537.267 152.783 530.628 152.783 530.628L161.599 515.172" stroke="black" stroke-width="4.11" stroke-miterlimit="10"/>
<path d="M152.783 313.842C173.924 307.218 182.632 272.56 186.141 249.258" stroke="black" stroke-width="4.11" stroke-miterlimit="10"/>
<path d="M132.909 276.606C138.782 275.712 144.36 273.083 149.109 268.97C153.858 264.857 157.62 259.397 160.035 253.113C160.54 251.862 160.786 250.493 160.753 249.112C160.72 247.731 160.409 246.379 159.845 245.164C157.539 240.203 154.1 234.455 154.917 228.508C155.506 224.313 158.477 221.362 161.884 220.412C163.611 219.886 165.43 219.922 167.141 220.515C168.166 220.853 169.114 221.452 169.916 222.267C170.718 223.083 171.353 224.096 171.777 225.233C172.606 227.493 171.618 229.73 170.092 231.202C168.566 232.674 166.78 233.197 164.918 233.785C164.677 233.866 164.018 234.028 163.29 234.19" stroke="black" stroke-width="4.11" stroke-miterlimit="10"/>
<path d="M416.642 360.717C416.642 360.717 458.315 350.575 466.143 335.965C467.611 333.301 468.525 330.278 468.816 327.133" stroke="black" stroke-width="4.11" stroke-miterlimit="10"/>
<path d="M211.582 335.766C284.269 326.795 366.311 328.119 366.311 328.119H412.355C415.33 328.124 418.296 327.719 421.19 326.912C428.258 324.955 442.191 320.664 453.249 314.606C460.748 310.492 469.494 317.087 468.854 326.714C468.854 326.831 468.854 326.956 468.816 327.096C470.277 327.097 471.716 327.507 473.012 328.291C474.308 329.075 475.422 330.211 476.26 331.602C477.097 332.993 477.634 334.598 477.825 336.282C478.015 337.965 477.853 339.677 477.353 341.272C461.824 390.871 416.642 389.318 416.642 389.318C410.866 389.516 405.103 389.781 399.321 390.127C348.382 393.005 297.892 401.315 248.467 415.983C234.736 420.038 221.145 425.823 207.402 430.607C195.685 434.722 183.848 438.085 171.682 439.116C148.147 441.095 124.005 434.03 104.606 418.22C62.1153 383.57 25.5467 311.324 54.984 252.679C65.377 231.983 88.9116 226.316 105.315 240.903C128.451 261.474 146.931 301.55 156.412 325.19" stroke="black" stroke-width="4.11" stroke-miterlimit="10"/>
<path d="M476.391 439.439H375.235" stroke="black" stroke-width="4.11" stroke-miterlimit="10"/>
<path d="M354.816 415.695C354.831 409.402 356.988 403.373 360.816 398.923C364.645 394.473 369.833 391.964 375.247 391.945H476.416C481.832 391.961 487.021 394.47 490.851 398.92C494.681 403.37 496.838 409.402 496.854 415.695" stroke="black" stroke-width="4.11" stroke-miterlimit="10"/>
<path d="M498.842 424.116C498.847 426.13 498.51 428.126 497.848 429.988C497.187 431.851 496.215 433.543 494.989 434.967C493.763 436.391 492.307 437.519 490.704 438.287C489.101 439.054 487.383 439.446 485.65 439.439H365.95C362.954 439.11 360.189 437.427 358.249 434.753C356.309 432.079 355.349 428.627 355.577 425.14C355.804 421.652 357.2 418.407 359.464 416.103C361.729 413.799 364.681 412.62 367.685 412.818H487.385C489.51 412.815 491.605 413.409 493.488 414.551C495.372 415.693 496.99 417.348 498.203 419.376C498.626 420.908 498.842 422.507 498.842 424.116Z" fill="#D7E8F0"/>
<path d="M498.842 424.115C498.847 426.13 498.509 428.126 497.848 429.988C497.187 431.85 496.215 433.542 494.989 434.966C493.763 436.39 492.306 437.518 490.704 438.286C489.101 439.054 487.384 439.445 485.65 439.439H365.95C364.194 439.484 362.447 439.12 360.813 438.37C359.18 437.619 357.691 436.498 356.436 435.07C355.18 433.642 354.182 431.937 353.501 430.055C352.819 428.174 352.469 426.153 352.469 424.111C352.469 422.07 352.819 420.049 353.501 418.167C354.182 416.285 355.18 414.58 356.436 413.152C357.691 411.725 359.18 410.603 360.813 409.853C362.447 409.103 364.194 408.739 365.95 408.784H485.65C488.437 408.783 491.153 409.807 493.407 411.709C495.662 413.612 497.341 416.295 498.203 419.375C498.626 420.907 498.842 422.506 498.842 424.115Z" stroke="black" stroke-width="4.11" stroke-miterlimit="10"/>
<path d="M185.913 248.713L185.672 251.076C185.562 252.148 185.118 253.136 184.424 253.853C183.729 254.571 182.833 254.968 181.904 254.969H168.749C167.82 254.968 166.924 254.571 166.229 253.853C165.535 253.136 165.091 252.148 164.981 251.076L163.284 234.148C164.012 233.986 164.671 233.824 164.911 233.743C166.773 233.154 168.578 232.653 170.086 231.159C171.593 229.665 172.619 227.479 171.77 225.19C171.347 224.054 170.712 223.041 169.91 222.225C169.108 221.409 168.16 220.81 167.134 220.473C165.423 219.879 163.605 219.843 161.878 220.37L161.479 216.336C161.42 215.72 161.474 215.096 161.637 214.506C161.799 213.915 162.067 213.371 162.422 212.909C162.777 212.446 163.213 212.076 163.699 211.822C164.186 211.568 164.714 211.436 165.247 211.435H185.431C185.965 211.437 186.491 211.57 186.977 211.824C187.463 212.079 187.898 212.449 188.252 212.911C188.607 213.373 188.874 213.917 189.036 214.507C189.199 215.098 189.252 215.72 189.193 216.336L188.725 220.936" stroke="black" stroke-width="4.11" stroke-miterlimit="10"/>
<path d="M187.667 231.453L187.648 231.615" stroke="black" stroke-width="4.11" stroke-miterlimit="10"/>
<path d="M186.679 241.176V241.11" stroke="black" stroke-width="4.11" stroke-miterlimit="10"/>
<path d="M186.869 241.174C186.813 241.163 186.754 241.163 186.698 241.174C186.618 241.164 186.537 241.164 186.457 241.174C185.637 241.178 184.847 241.539 184.245 242.187C183.642 242.835 183.271 243.722 183.205 244.673C183.139 245.623 183.383 246.568 183.887 247.32C184.392 248.073 185.122 248.577 185.932 248.733C186.281 248.814 186.64 248.814 186.989 248.733C188.57 248.44 190.014 247.513 191.068 246.113C192.473 243.426 193.45 240.467 193.95 237.376C193.959 237.345 193.959 237.312 193.95 237.281C194.336 235.004 194.483 232.681 194.387 230.362M194.387 230.362C194.387 229.369 194.279 228.382 194.178 227.418C193.985 225.805 193.35 224.307 192.368 223.145C191.386 221.983 190.109 221.218 188.725 220.964C188.655 220.964 188.573 220.964 188.503 220.919C185.843 220.537 182.113 221.707 181.422 225.196C180.789 228.346 183.728 231.047 186.141 231.29C186.141 231.29 186.774 231.385 187.667 231.452C189.453 231.591 192.423 231.569 194.387 230.362ZM194.387 230.362C194.676 230.189 194.947 229.979 195.197 229.737" stroke="black" stroke-width="4.11" stroke-miterlimit="10"/>
<path d="M189.643 231.623H189.206H185.83H184.342C183.336 231.627 182.369 232.078 181.64 232.885C180.911 233.69 180.475 234.79 180.422 235.958C180.372 237.093 180.687 238.208 181.305 239.089C181.923 239.97 182.799 240.554 183.766 240.727C188.136 241.544 193.126 241.714 193.981 237.165" stroke="black" stroke-width="4.11" stroke-miterlimit="10"/>
<path d="M404.134 439.439C404.134 439.439 419.581 456.493 414.761 509.359C414.41 513.134 413.28 516.755 411.468 519.914L409.789 522.858C407.037 527.648 402.887 531.119 398.104 532.632C388.015 535.833 369.712 543.252 358.407 557.31C353.632 563.264 357.185 572.965 364.19 572.965C365.495 572.969 366.782 572.597 367.935 571.883C369.087 571.169 370.07 570.135 370.795 568.872C375.399 560.821 389.339 543.723 422.963 544.084C460.887 544.489 476.163 562.013 481.058 569.564C481.735 570.617 482.613 571.473 483.623 572.063C484.634 572.653 485.748 572.962 486.879 572.965C488.296 572.961 489.682 572.477 490.866 571.572C492.05 570.668 492.982 569.38 493.546 567.869C494.109 566.358 494.282 564.688 494.042 563.065C493.801 561.442 493.159 559.935 492.192 558.73C477.404 540.058 459.316 533.095 449.335 530.512C444.32 529.256 439.89 525.867 436.915 521.01C434.638 517.264 433.342 512.831 433.185 508.248C432.627 491.857 432.336 452.069 441.893 439.454" stroke="black" stroke-width="4.11" stroke-miterlimit="10"/>
<path d="M372.024 315.871V317.063C372.024 325.225 366.362 326.631 361.473 326.771L266.846 329.332C262.698 329.45 259.208 325.24 259.12 319.97V319.75C259.12 314.598 262.388 310.292 266.479 310.182C266.479 310.182 319.419 308.445 360.409 307.134C361.194 310.02 363.094 312.242 365.475 313.987C367.448 315.358 369.728 316.014 372.024 315.871Z" stroke="black" stroke-width="4.11" stroke-miterlimit="10"/>
<path d="M422.323 199.509C422.328 200.852 422.063 202.177 421.55 203.381L379.231 304.198C378.735 305.368 378.024 306.398 377.149 307.216C376.274 308.033 375.255 308.618 374.165 308.93C372.417 309.451 370.567 309.231 368.946 308.312C367.646 307.569 366.553 306.415 365.79 304.983C365.027 303.552 364.627 301.9 364.633 300.216C364.636 299.802 364.661 299.39 364.709 298.98C364.822 298.067 365.057 297.181 365.406 296.352L407.719 195.52C408.483 193.711 409.752 192.255 411.319 191.391C412.886 190.528 414.659 190.305 416.348 190.763C418.038 191.219 419.544 192.327 420.623 193.906C421.701 195.485 422.286 197.442 422.285 199.458L422.323 199.509Z" stroke="black" stroke-width="4.11" stroke-miterlimit="10"/>
<path d="M79.7155 189.559C79.6648 189.353 79.5951 189.154 79.5381 188.956C79.4811 188.757 79.3988 188.529 79.3481 188.308" stroke="black" stroke-width="4.11" stroke-linecap="round" stroke-linejoin="round"/>
<path d="M79.7155 189.567L81.0138 188.05L83.4965 185.128" stroke="black" stroke-width="4.11" stroke-linecap="round" stroke-linejoin="round"/>
<path d="M94.3264 193.558C94.3264 193.558 95.9921 199.335 102.357 199.726" stroke="black" stroke-width="4.11" stroke-miterlimit="10"/>
<path d="M66.0165 207.091C60.3165 210.439 53.8502 203.197 54.2999 197.228C54.5912 193.136 53.7932 190.311 51.1902 187.344C51.0192 187.145 50.8609 186.939 50.7089 186.74C49.7177 185.488 49.0736 183.918 48.8589 182.234C48.6442 180.551 48.8697 178.83 49.5055 177.297C50.6899 174.096 53.2422 172.219 51.4689 168.767C50.6905 167.275 50.1224 165.647 49.7842 163.946C49.4302 161.691 49.4967 159.374 49.9786 157.151C50.4606 154.928 51.3466 152.851 52.5772 151.059C55.1865 147.379 59.4362 148.395 62.9258 147.107C67.1248 145.554 69.0882 140.306 73.4962 138.694C75.7002 137.892 77.7458 138.253 79.9498 138.834C81.8055 139.342 83.6675 139.909 85.4725 140.571C87.2775 141.233 88.9241 141.8 90.7291 141.174C93.0915 140.372 94.9091 137.848 97.4805 137.826C100.052 137.804 102.028 139.563 103.18 142.021C105.004 145.878 105.017 151.486 103.301 154.813C101.527 158.257 97.8161 159.714 94.6241 160.458C90.5455 161.429 86.3275 161.687 82.1982 162.114L79.7978 162.798C78.8846 163.128 78.1214 163.864 77.6749 164.846C77.2284 165.829 77.1353 166.977 77.4165 168.039C78.9017 173.978 80.9448 179.709 83.5092 185.128" stroke="black" stroke-width="4.11" stroke-miterlimit="10"/>
<path d="M83.4965 207.936C83.4965 207.936 96.0618 218.63 103.225 212.735C110.388 206.84 106.341 189.558 106.341 189.558" stroke="black" stroke-width="4.11" stroke-linecap="round" stroke-linejoin="round"/>
<path d="M172.283 204.052C172.283 204.052 166.944 199.857 170.339 195.573C173.734 191.289 169.212 185.637 169.212 185.637" stroke="black" stroke-width="4.11" stroke-miterlimit="10"/>
<path d="M177.211 204.78C177.211 204.78 180.745 202.005 178.477 199.164C176.21 196.323 179.231 192.54 179.231 192.54" stroke="black" stroke-width="4.11" stroke-miterlimit="10"/>
<path d="M201.562 164.802C240.01 164.802 271.178 128.582 271.178 83.9012C271.178 39.2208 240.01 3 201.562 3C163.115 3 131.946 39.2208 131.946 83.9012C131.946 128.582 163.115 164.802 201.562 164.802Z" stroke="#CCDDE2" stroke-width="4.11" stroke-miterlimit="10"/>
<path d="M201.562 128.331C222.678 128.331 239.797 108.438 239.797 83.8989C239.797 59.3592 222.678 39.4666 201.562 39.4666C180.446 39.4666 163.328 59.3592 163.328 83.8989C163.328 108.438 180.446 128.331 201.562 128.331Z" stroke="#CCDDE2" stroke-width="4.11" stroke-miterlimit="10"/>
<path d="M201.562 91.5158C205.182 91.5158 208.117 88.1052 208.117 83.8982C208.117 79.6912 205.182 76.2806 201.562 76.2806C197.942 76.2806 195.007 79.6912 195.007 83.8982C195.007 88.1052 197.942 91.5158 201.562 91.5158Z" stroke="#CCDDE2" stroke-width="4.11" stroke-miterlimit="10"/>
<path d="M215.135 58.4643L205.014 77.4236" stroke="#CCDDE2" stroke-width="4.11" stroke-miterlimit="10"/>
<path d="M201.562 39.4666V47.3713" stroke="#CCDDE2" stroke-width="4.11" stroke-miterlimit="10"/>
<path d="M239.797 83.8997H233.349" stroke="#CCDDE2" stroke-width="4.11" stroke-miterlimit="10"/>
<path d="M201.562 128.34V120.656" stroke="#CCDDE2" stroke-width="4.11" stroke-miterlimit="10"/>
<path d="M163.322 83.8997H169.136" stroke="#CCDDE2" stroke-width="4.11" stroke-miterlimit="10"/>
<path d="M268.284 218.412C282.59 218.412 294.187 204.934 294.187 188.309C294.187 171.684 282.59 158.207 268.284 158.207C253.978 158.207 242.381 171.684 242.381 188.309C242.381 204.934 253.978 218.412 268.284 218.412Z" fill="#3FBDF1"/>
<path d="M276.802 178.255C276.437 177.276 275.945 176.368 275.346 175.561C274.319 174.15 272.885 173.222 271.313 172.951C269.74 172.68 268.136 173.085 266.802 174.089C265.932 174.749 265.204 175.633 264.677 176.674C264.15 177.715 263.836 178.883 263.762 180.088C262.398 179.507 260.909 179.457 259.519 179.946C258.13 180.434 256.914 181.434 256.056 182.796C255.198 184.158 254.745 185.806 254.764 187.494C254.783 189.181 255.273 190.816 256.162 192.151C258.018 194.962 261.172 196.81 264.028 197.884C265.526 198.441 267.069 198.821 268.632 199.018C269.424 199.121 273.94 199.827 274.332 199.018C277.151 193.895 279.152 184.511 276.802 178.255Z" fill="white"/>
<g opacity="0.72">
<path opacity="0.72" d="M332.846 175.848C340.723 175.848 347.109 168.428 347.109 159.273C347.109 150.12 340.723 142.699 332.846 142.699C324.969 142.699 318.583 150.12 318.583 159.273C318.583 168.428 324.969 175.848 332.846 175.848Z" fill="#3FBDF1"/>
<path opacity="0.72" d="M339.033 162.209C339.387 161.791 339.681 161.312 339.907 160.789C340.314 159.887 340.424 158.842 340.215 157.853C340.006 156.864 339.494 155.997 338.774 155.416C338.303 155.039 337.764 154.793 337.198 154.698C336.633 154.604 336.055 154.663 335.512 154.871C335.482 153.943 335.192 153.051 334.687 152.33C334.181 151.61 333.489 151.099 332.712 150.876C331.936 150.654 331.118 150.731 330.382 151.096C329.647 151.46 329.033 152.093 328.634 152.899C327.858 154.721 327.557 156.768 327.766 158.787C327.838 159.784 327.995 160.77 328.235 161.731C328.356 162.224 328.989 165.043 329.419 165.131C332.25 165.683 336.785 164.911 339.033 162.209Z" fill="white"/>
</g>
<path d="M312.408 237.543L305.628 254.204C303.169 260.245 305.39 267.458 310.589 270.315L324.925 278.194C330.123 281.051 336.33 278.469 338.789 272.428L345.569 255.768C348.027 249.727 345.806 242.514 340.607 239.657L326.271 231.778C321.073 228.921 314.866 231.502 312.408 237.543Z" fill="#3FBDF1"/>
<path d="M341.7 258.685L336.792 270.748C335.762 273.261 333.918 275.198 331.664 276.137C329.409 277.075 326.927 276.94 324.758 275.76L312.307 268.915C310.146 267.717 308.48 265.575 307.674 262.955C306.867 260.335 306.984 257.451 308 254.931L308.33 254.122C311.712 250.986 317.557 246.762 319.692 252.51C322.763 260.812 326.76 258.133 331.864 254.659C336.127 251.73 341.244 250.751 341.7 258.685Z" fill="white"/>
<path d="M322.415 245.865C324.531 245.865 326.247 243.871 326.247 241.412C326.247 238.952 324.531 236.959 322.415 236.959C320.299 236.959 318.583 238.952 318.583 241.412C318.583 243.871 320.299 245.865 322.415 245.865Z" fill="white"/>
<path d="M387.788 182.899C388.55 184.513 389.102 186.249 389.428 188.051C390.008 191.347 389.842 194.762 388.945 197.96C388.047 201.159 386.451 204.031 384.311 206.297C382.613 208.041 380.454 209.402 378.737 211.228C377.485 212.483 376.563 214.124 376.077 215.96C375.989 216.588 375.771 217.181 375.444 217.69C374.443 218.941 373.462 216.954 372.594 216.615C371.196 216.087 369.679 216.173 368.332 216.858C364.789 218.58 360.844 218.824 357.165 217.551C353.485 216.277 350.298 213.564 348.143 209.871C345.988 206.179 344.999 201.733 345.342 197.29C345.686 192.846 347.342 188.677 350.028 185.49C352.682 182.347 356.153 180.338 359.528 178.292C362.48 176.474 365.418 174.538 368.623 173.449C376.134 170.836 384.152 175.186 387.788 182.899Z" fill="#3FBDF1"/>
<path d="M357.539 205.634C359.533 205.634 361.149 203.756 361.149 201.439C361.149 199.122 359.533 197.244 357.539 197.244C355.546 197.244 353.929 199.122 353.929 201.439C353.929 203.756 355.546 205.634 357.539 205.634Z" fill="white"/>
<path d="M367.261 199.591C369.255 199.591 370.871 197.713 370.871 195.396C370.871 193.079 369.255 191.2 367.261 191.2C365.268 191.2 363.651 193.079 363.651 195.396C363.651 197.713 365.268 199.591 367.261 199.591Z" fill="white"/>
<path d="M376.381 193.924C378.375 193.924 379.991 192.046 379.991 189.729C379.991 187.412 378.375 185.534 376.381 185.534C374.388 185.534 372.771 187.412 372.771 189.729C372.771 192.046 374.388 193.924 376.381 193.924Z" fill="white"/>
<path d="M266.314 54.1579C266.314 54.1579 290.083 139.593 381.581 134.978C411.981 130.562 448.163 134.978 480.381 184.29C529.356 259.303 509.692 342.868 487.436 395.912" stroke="#CCDDE2" stroke-width="4.11" stroke-miterlimit="10"/>
<g opacity="0.54">
<path opacity="0.54" d="M398.573 87.7114C398.483 89.0002 398.312 90.2793 398.06 91.5386L395.21 105.905C394.336 110.321 393.354 114.943 390.644 118.167C385.577 124.173 377.154 122.797 370.111 120.979L352.821 116.518C348.85 115.495 344.816 114.443 341.257 112.154C337.697 109.865 334.607 106.119 333.783 101.489C333.15 98.0743 333.828 94.5415 334.474 91.1412L337.083 77.3485C337.951 72.8295 338.926 68.0602 341.732 64.7703C346.729 58.9191 355.031 60.2513 361.935 61.9956L379.643 66.4705C390.321 69.1495 399.422 74.905 398.573 87.7114Z" fill="#3FBDF1"/>
<path opacity="0.54" d="M374.728 88.0949C375.469 88.8949 376.015 89.9076 376.312 91.0308C376.609 92.1546 376.645 93.3492 376.419 94.4944C376.192 95.6396 375.71 96.695 375.021 97.5554C374.332 98.4151 373.46 99.0488 372.492 99.3925L367.223 101.269L361.954 103.146C360.987 103.49 359.959 103.532 358.973 103.268C357.989 103.003 357.08 102.443 356.34 101.642C355.6 100.841 355.055 99.8282 354.759 98.7043C354.462 97.5812 354.425 96.3867 354.652 95.2414L355.918 89.0001L357.153 82.7662C357.379 81.6203 357.86 80.5641 358.549 79.703C359.238 78.8426 360.11 78.2074 361.077 77.863C362.044 77.5178 363.072 77.4759 364.057 77.7393C365.043 78.0036 365.951 78.5644 366.691 79.3659L370.726 83.7304L374.728 88.0949Z" fill="white"/>
</g>
<path d="M25.1539 572.966H572.049" stroke="black" stroke-width="4.11" stroke-miterlimit="10"/>
</svg>
