<svg width="570" height="464" viewBox="0 0 570 464" fill="none" xmlns="http://www.w3.org/2000/svg">
<path d="M492.581 291.97C483.645 232.389 452.004 179.071 400.596 159.989C387.446 155.135 373.998 151.417 360.367 148.869V148.949C359.656 153.895 357.973 158.59 355.446 162.672C350.088 171.123 342.703 178.065 334.153 181.682C325.426 185.401 314.615 185.882 306.514 180.034C301.638 176.519 296.907 170.329 296.052 163.649C295.076 156.124 298.408 149 303.094 144.027C263.372 144.399 226.005 151.924 196.061 160.492C197.099 165.495 198.536 170.377 200.355 175.076C202.9 181.626 206.497 187.563 210.957 192.576C216.52 186.231 221.39 179.131 225.46 171.43C229.354 172.897 232.788 175.65 235.334 179.346C237.879 183.043 239.426 187.518 239.78 192.218V192.459C241.351 209.529 227.075 222.355 215.08 230.245C201.223 239.418 185.776 246.287 170.601 251.996C164.344 254.359 156.212 256.371 149.606 253.907C148.895 253.646 148.201 253.326 147.529 252.952C140.942 249.233 136.534 241.438 133.095 234.314C123.297 214.079 116.926 192.022 112.607 169.381C82.631 173.792 79.1984 150.422 77.4187 144.691L51.775 227.226C50.4298 233.159 50.2848 239.368 51.3494 245.375C52.4147 251.383 54.6624 257.03 57.9196 261.881C61.1762 266.732 65.3562 270.659 70.1373 273.36C74.9189 276.061 80.1743 277.463 85.5 277.459H191.659L239.881 419.867L253.549 460.286H331.613C325.28 460.286 321.816 458.506 319.301 455.604C316.705 452.613 315.243 448.56 315.235 444.331C315.235 435.581 321.474 428.406 331.613 428.406H332.329C331.563 428.406 330.828 428.326 330.062 428.245C330.537 428.186 331.008 428.096 331.474 427.976C330.972 427.962 330.471 427.918 329.973 427.844C334.546 427.222 338.785 424.77 341.946 420.915C345.108 417.061 346.992 412.049 347.269 406.757C347.282 406.482 347.282 406.207 347.269 405.933V405.51C347.16 400.084 345.359 394.884 342.195 390.861C339.031 386.838 334.715 384.26 330.036 383.598C330.568 383.547 331.075 383.496 331.588 383.496C331.126 383.365 330.613 383.285 330.131 383.204C330.891 383.124 331.658 383.066 332.392 383.066L389.506 383.416L400.013 383.467H412.484C413.06 383.467 413.643 383.467 414.194 383.547L432.719 383.656L445.094 383.737C450.266 383.786 455.21 386.192 458.846 390.429C462.481 394.665 464.511 400.386 464.493 406.341C464.487 409.708 463.808 413.028 462.511 416.046C467.821 415.264 472.744 412.437 476.482 408.025C485.393 397.547 489.231 381.863 491.885 367.921C496.578 343.085 496.299 316.915 492.581 291.97ZM348.283 293.647C337.522 312.715 319.2 311.001 319.2 311.001C319.2 311.001 317.68 312.708 314.133 305.445C310.587 298.182 300.485 293.217 300.485 293.217C299.681 300.508 298.015 311.592 281.485 297.227C264.955 282.862 269.939 261.92 271.352 250.859C272.764 239.797 278.394 236.13 278.394 236.13L285.044 232.09C285.044 232.09 265.81 226.395 264.885 226.184C263.961 225.972 246.829 209.456 264.214 205.096C281.599 200.735 308.699 218.075 313.937 221.502C319.175 224.929 349.784 254.738 349.784 254.738C349.784 254.738 359.1 274.608 348.283 293.647Z" fill="#353642"/>
<path d="M112.581 169.394C112.581 169.394 127.078 167.367 132.506 155.452L127.775 186.012C127.775 186.012 185.446 163.407 196.023 160.491C196.023 160.491 199.43 185.786 212.996 192.574L226.993 172.084C226.993 172.084 244.543 177.189 239.742 204.722C234.941 232.256 168.543 255.269 157.282 254.737C146.021 254.204 133.899 246.227 121.486 203.359L112.581 169.394Z" fill="#353642"/>
<path d="M136.198 101.319C139.872 108.202 143.564 115.071 147.377 121.852C149.726 126.03 154.008 131.988 149.454 136.356C147.972 137.664 146.182 138.426 144.318 138.543C141.392 138.842 138.32 138.033 136.54 135.138L127.674 118.221C125.907 114.847 123.1 112.364 119.815 111.263C116.528 110.164 113.003 110.529 109.94 112.285" stroke="black" stroke-width="5.47" stroke-miterlimit="10"/>
<path d="M169.733 123.6C172.051 129.944 170.481 134.035 167.77 136.091C163.337 139.438 157.402 137.834 154.261 132.948L136.23 101.353" stroke="black" stroke-width="5.47" stroke-miterlimit="10"/>
<path d="M151.462 92.131C158.023 101.319 166.301 118.381 170.88 125.505C175.459 132.629 182.539 128.335 182.539 128.335C188.29 124.769 187.315 118.855 184.8 111.673C178.606 94.0415 169.765 82.3163 159.904 74.6308C129.346 50.8305 97.9957 68.3891 88.6667 109.471L51.775 227.226C50.4298 233.159 50.2848 239.368 51.3494 245.375C52.4147 251.383 54.6624 257.03 57.9196 261.881C61.1762 266.732 65.3562 270.659 70.1373 273.36C74.9189 276.06 80.1743 277.462 85.5 277.458H191.659L253.568 460.292" stroke="black" stroke-width="5.47" stroke-miterlimit="10"/>
<path d="M189.367 103.586C196.967 100.552 196.618 86.5959 185.833 81.8854C173.92 76.6791 152.766 69.3144 147.453 67.4769C147.42 67.4477 147.38 67.4302 147.339 67.4258C146.965 67.2946 146.705 67.1852 146.503 67.1342L146.205 67.0248" stroke="black" stroke-width="5.47" stroke-miterlimit="10"/>
<path d="M301.657 243.127C295.007 233.925 276.805 228.712 264.923 226.189C262.926 225.757 261.106 224.59 259.734 222.863C258.364 221.136 257.518 218.944 257.323 216.615C257.185 215.044 257.343 213.457 257.786 211.962C258.494 209.668 259.851 207.713 261.639 206.413C263.427 205.112 265.543 204.539 267.647 204.787C287.913 207.15 308.813 214.493 324.273 230.308C324.273 230.308 399.215 296.153 408.164 302.563C411.857 305.144 415.302 302.096 412.8 298.042L412.015 296.496C407.61 287.792 402.397 279.666 396.467 272.258" stroke="black" stroke-width="5.47" stroke-miterlimit="10"/>
<path d="M303.044 144.019C208.791 144.923 127.775 186.004 127.775 186.004L135.863 133.81" stroke="black" stroke-width="5.47" stroke-miterlimit="10"/>
<path d="M449.432 428.083C449.432 428.083 439.166 425.407 436.436 434.872C433.707 444.336 430.857 459.394 450.484 460.283C470.111 461.173 458.584 456.732 457.45 449.419C456.317 442.105 449.432 428.083 449.432 428.083Z" fill="#353642"/>
<path d="M292.6 255.138C292.6 255.138 281.523 245.469 271.548 255.27C271.128 255.695 270.761 256.186 270.459 256.728" stroke="black" stroke-width="5.47" stroke-miterlimit="10"/>
<g opacity="0.77">
<path opacity="0.77" d="M154.223 132.914C157.39 137.807 163.318 139.404 167.732 136.049C170.411 134.008 171.982 129.939 169.721 123.653C170.132 124.346 170.506 124.959 170.873 125.52C175.446 132.673 182.533 128.364 182.533 128.364C188.284 124.798 187.315 118.885 184.8 111.695C182.34 104.574 179.112 97.8368 175.193 91.6425C177.758 88.8789 180.804 86.0862 184.015 87.3112C187.479 88.6383 188.448 93.6405 188.841 97.8113C189.025 99.7509 189.208 101.669 189.392 103.608L192.166 132.163C193.091 141.642 194.015 151.26 196.023 160.513C197.061 165.516 198.498 170.398 200.317 175.097C202.862 181.647 206.459 187.585 210.919 192.597C216.482 186.252 221.352 179.152 225.422 171.451C229.316 172.918 232.75 175.671 235.296 179.368C237.841 183.064 239.388 187.539 239.742 192.24V192.48C241.313 209.55 227.037 222.376 215.042 230.266C201.185 239.439 185.738 246.308 170.563 252.018C164.306 254.38 156.174 256.393 149.568 253.928C148.857 253.667 148.163 253.348 147.491 252.973C140.904 249.254 136.496 241.459 133.057 234.335C116.59 200.246 109.75 161.104 106.147 122.341C113.354 121.196 120.536 119.92 127.629 118.163C127.629 118.163 127.629 118.221 127.674 118.243L135.85 133.854L136.521 135.152C138.295 138.069 141.366 138.849 144.299 138.558C146.163 138.451 147.954 137.688 149.429 136.37C153.976 131.995 149.707 126.06 147.351 121.881" fill="white"/>
<path opacity="0.77" d="M154.223 132.914C157.39 137.807 163.318 139.404 167.732 136.049C170.411 134.008 171.982 129.939 169.721 123.653C170.132 124.346 170.506 124.959 170.873 125.52C175.446 132.673 182.533 128.364 182.533 128.364C188.284 124.798 187.315 118.885 184.8 111.695C182.34 104.574 179.112 97.8368 175.193 91.6425C177.758 88.8789 180.804 86.0862 184.015 87.3112C187.479 88.6383 188.448 93.6405 188.841 97.8113C189.025 99.7509 189.208 101.669 189.392 103.608L192.166 132.163C193.091 141.642 194.015 151.26 196.023 160.513C197.061 165.516 198.498 170.398 200.317 175.097C202.862 181.647 206.459 187.585 210.919 192.597C216.482 186.252 221.352 179.152 225.422 171.451C229.316 172.918 232.75 175.671 235.296 179.368C237.841 183.064 239.388 187.539 239.742 192.24V192.48C241.313 209.55 227.037 222.376 215.042 230.266C201.185 239.439 185.738 246.308 170.563 252.018C164.306 254.38 156.174 256.393 149.568 253.928C148.857 253.667 148.163 253.348 147.491 252.973C140.904 249.254 136.496 241.459 133.057 234.335C116.59 200.246 109.75 161.104 106.147 122.341C113.354 121.196 120.536 119.92 127.629 118.163C127.629 118.163 127.629 118.221 127.674 118.243L135.85 133.854L136.521 135.152C138.295 138.069 141.366 138.849 144.299 138.558C146.163 138.451 147.954 137.688 149.429 136.37C153.976 131.995 149.707 126.06 147.351 121.881" fill="#3FBDF1"/>
<path opacity="0.77" d="M156.167 135.225C158.973 139.6 163.767 139.046 167.732 136.049C170.126 134.226 172.089 134.759 170.069 129.137C170.443 129.749 170.493 127.678 170.823 128.138C174.908 134.525 170.873 125.498 170.873 125.498C176.573 133.789 188.98 125.979 186.707 119.57C184.3 112.665 181.767 102.456 178.556 97.3519C181.089 94.5957 180.601 95.004 183.825 97.1988C184.691 97.839 185.416 98.7031 185.942 99.7218C186.469 100.74 186.783 101.886 186.859 103.069C187.118 105.847 187.378 108.508 187.638 111.221L190.108 136.742C190.937 145.222 191.761 153.79 193.553 162.044C194.48 166.508 195.765 170.862 197.391 175.053C199.658 180.821 206.942 190.424 210.919 194.821C215.865 189.17 221.793 178.779 225.422 171.874C232.389 174.338 232.085 182.009 232.579 190.388V190.606C233.985 205.839 221.242 217.28 210.564 224.331C198.189 232.519 184.401 238.644 170.854 243.749C165.268 245.863 158.01 247.686 152.114 245.455C151.478 245.224 150.857 244.938 150.258 244.602C144.381 241.277 140.442 234.328 137.37 227.962C123.924 200.158 117.686 168.592 114.253 136.946C114.001 134.578 114.558 132.191 115.806 130.286C117.053 128.381 118.894 127.109 120.941 126.738C124.798 126.009 128.643 125.279 132.462 124.302L132.569 124.361L139.865 138.295C141.455 140.884 141.715 138.857 144.33 138.594C145.983 138.426 149.188 138.055 150.467 136.822C154.527 132.928 152.234 131.317 150.132 127.591" fill="#3FBDF1"/>
</g>
<path d="M291.264 269.212C291.264 269.212 270.231 261.25 269.914 274.637" stroke="black" stroke-width="5.47" stroke-miterlimit="10"/>
<path opacity="0.54" d="M102.993 405.587L61.7436 283.917C61.2325 281.562 61.1945 279.105 61.6315 276.731C62.0692 274.357 62.971 272.129 64.2681 270.216C65.5658 268.304 67.2245 266.756 69.1194 265.692C71.0137 264.629 73.0942 264.076 75.202 264.076H239.045C242.724 264.075 246.296 265.501 249.186 268.123C252.076 270.744 254.114 274.41 254.974 278.528L300.13 400.169C300.619 402.516 300.638 404.959 300.189 407.316C299.738 409.673 298.831 411.881 297.533 413.776C296.235 415.671 294.582 417.202 292.696 418.256C290.811 419.309 288.742 419.856 286.647 419.857H118.883C115.231 419.86 111.684 418.456 108.805 415.871C105.926 413.285 103.88 409.665 102.993 405.587Z" fill="white"/>
<path d="M298.11 289.736C298.11 289.736 301.524 293.338 300.225 298.486C299.263 302.299 295.969 304.706 292.708 303.4C282.321 299.266 272.967 292.244 270.687 280.307C269.609 274.264 269.376 268.061 269.996 261.932C270.497 256.252 271.225 250.119 272.884 244.716C275.418 236.418 283.176 230.636 290.706 234.632" stroke="black" stroke-width="5.47" stroke-miterlimit="10"/>
<path d="M102.993 405.587L61.7436 283.917C61.2325 281.562 61.1945 279.105 61.6315 276.731C62.0692 274.357 62.971 272.129 64.2681 270.216C65.5658 268.304 67.2245 266.756 69.1194 265.692C71.0137 264.629 73.0942 264.076 75.202 264.076H239.045C242.724 264.075 246.296 265.501 249.186 268.123C252.076 270.744 254.114 274.41 254.974 278.528L300.13 400.169C300.619 402.516 300.638 404.959 300.189 407.316C299.738 409.673 298.831 411.881 297.533 413.776C296.235 415.671 294.582 417.202 292.696 418.256C290.811 419.309 288.742 419.856 286.647 419.857H118.883C115.231 419.86 111.684 418.456 108.805 415.871C105.926 413.285 103.88 409.665 102.993 405.587Z" fill="#3FBDF1"/>
<path d="M102.993 405.587L61.7436 283.917C61.2325 281.562 61.1945 279.105 61.6315 276.731C62.0692 274.357 62.971 272.129 64.2681 270.216C65.5658 268.304 67.2245 266.756 69.1194 265.692C71.0137 264.629 73.0942 264.076 75.202 264.076H239.045C242.724 264.075 246.296 265.501 249.186 268.123C252.076 270.744 254.114 274.41 254.974 278.528L300.13 400.169C300.619 402.516 300.638 404.959 300.189 407.316C299.738 409.673 298.831 411.881 297.533 413.776C296.235 415.671 294.582 417.202 292.696 418.256C290.811 419.309 288.742 419.856 286.647 419.857H118.883C115.231 419.86 111.684 418.456 108.805 415.871C105.926 413.285 103.88 409.665 102.993 405.587Z" stroke="black" stroke-width="5.47" stroke-linecap="square" stroke-linejoin="round"/>
<path d="M109.028 400.687L70.9714 288.394C70.5008 286.222 70.4666 283.955 70.8707 281.765C71.2747 279.575 72.1069 277.52 73.3046 275.756C74.5016 273.992 76.0323 272.565 77.7797 271.583C79.5277 270.602 81.4467 270.092 83.391 270.092H234.542C237.936 270.09 241.231 271.405 243.897 273.823C246.562 276.241 248.443 279.622 249.236 283.421L290.903 395.648C291.352 397.814 291.37 400.069 290.955 402.243C290.539 404.417 289.701 406.455 288.503 408.203C287.306 409.95 285.78 411.364 284.04 412.335C282.3 413.307 280.391 413.812 278.458 413.812H123.684C120.32 413.816 117.052 412.526 114.398 410.149C111.743 407.771 109.854 404.442 109.028 400.687Z" fill="#3FBDF1"/>
<path d="M432.516 383.072L461.497 460.284" stroke="black" stroke-width="5.47" stroke-miterlimit="10"/>
<path d="M570 460.284H0" stroke="black" stroke-width="5.47" stroke-miterlimit="10"/>
<path d="M300.434 111.795C295.735 117.14 288.718 117.133 284.721 112.189" stroke="black" stroke-width="5.47" stroke-miterlimit="10"/>
<path d="M175.193 91.6192C177.758 88.8556 180.804 86.0629 184.015 87.2879C187.479 88.615 188.448 93.6171 188.841 97.788C189.951 109.251 191.06 120.702 192.166 132.14C193.572 146.724 195.054 161.657 200.317 175.059C202.862 181.609 206.459 187.547 210.919 192.559" stroke="black" stroke-width="5.47" stroke-miterlimit="10"/>
<path d="M239.742 192.472V192.231C239.388 187.531 237.841 183.055 235.296 179.359C232.75 175.663 229.316 172.91 225.422 171.442C221.352 179.143 216.482 186.244 210.919 192.588C196.335 209.284 177.601 220.341 157.314 224.227C158.289 228.697 160.297 232.766 161.684 237.068C163.071 241.37 163.761 246.35 162.076 250.499C159.948 255.793 153.843 255.1 149.6 253.926C149.555 253.926 149.53 253.926 149.486 253.926" stroke="black" stroke-width="5.47" stroke-miterlimit="10"/>
<path d="M127.642 118.155C120.549 119.913 113.367 121.189 106.159 122.334C109.763 161.097 116.578 200.239 133.07 234.328C136.509 241.452 140.917 249.247 147.503 252.965C148.175 253.341 148.869 253.66 149.581 253.921C156.186 256.422 164.318 254.373 170.576 252.01C185.776 246.293 201.197 239.432 215.055 230.259C227.018 222.362 241.294 209.543 239.755 192.473C239.606 190.593 239.272 188.739 238.76 186.946" stroke="black" stroke-width="5.47" stroke-miterlimit="10"/>
<path d="M246.253 40.8313C247.315 45.9341 249.742 50.5235 253.19 53.9536C256.639 57.3843 260.935 59.4815 265.474 59.9503C265.851 57.8459 266.669 55.8779 267.856 54.2197C272.922 47.3436 275.082 60.2427 291.289 50.9822C313.747 38.1195 322.272 45.4988 322.272 45.4988C323.019 46.1405 322.905 52.0606 323.032 53.1398C323.665 59.2868 324.235 65.4046 324.862 71.5442C325.242 75.2922 325.616 79.0117 325.97 82.7305C326.276 82.0976 326.614 81.4858 326.984 80.8995C329.029 72.5651 332.684 62.7219 340.562 66.9584C342.158 67.8539 343.547 69.17 344.616 70.8005C349.841 78.7047 345.882 86.3392 340.417 91.9903C339.047 93.744 337.515 95.3205 335.85 96.6942C336.75 98.838 340.423 107.347 340.423 107.377C340.803 108.237 353.641 91.5091 354.597 89.6861C356.026 85.2206 356.792 80.5102 356.864 75.7523C357.073 56.1885 350.157 33.4156 336.395 22.1936C332.981 19.4154 334.071 16.7393 333.862 12.9622C333.847 12.758 333.779 12.5641 333.667 12.4051C333.554 12.2462 333.403 12.1302 333.232 12.0726C333.061 12.015 332.879 12.0187 332.71 12.0821C332.541 12.1463 332.393 12.2673 332.285 12.4306C327.972 18.1474 317.294 17.5786 317.294 17.5786C280.231 6.8889 267.773 25.8621 260.294 29.2454C257.242 30.5762 253.882 30.6404 250.794 29.4277C250.612 30.6046 250.154 31.702 249.47 32.6018C248.785 33.5016 247.901 34.1688 246.911 34.532L247.101 36.5073C247.263 38.0189 246.963 39.5472 246.253 40.8313Z" fill="#3FBDF1"/>
<path d="M265.5 59.9824C260.961 59.5128 256.664 57.4157 253.216 53.9857C249.767 50.5556 247.34 45.9655 246.278 40.8634C245.862 38.9063 245.599 36.9098 245.493 34.8987L245.784 34.8623C246.182 34.828 246.574 34.7296 246.949 34.5706C247.939 34.2075 248.823 33.5403 249.508 32.6405C250.192 31.7414 250.65 30.6433 250.832 29.4664C250.948 28.8138 250.971 28.1437 250.901 27.483L249.951 17.8287C249.951 17.8287 256.652 23.5674 264.087 20.2132C271.523 16.8589 284.006 -2.11422 321.087 8.54634C321.087 8.54634 329.46 9.1151 333.754 3.39835C333.862 3.23502 334.01 3.11396 334.18 3.05052C334.349 2.98636 334.53 2.98344 334.701 3.04104C334.872 3.09865 335.024 3.2146 335.136 3.37283C335.249 3.53179 335.316 3.72647 335.331 3.93064C335.553 7.71506 336.769 10.3911 340.189 13.162C353.951 24.3913 360.867 47.1562 360.652 66.72C360.588 74.8357 358.245 82.8494 354.629 89.7255C353.672 91.5484 340.835 108.276 340.455 107.415C340.455 107.415 336.781 98.8767 335.882 96.7329L335.667 96.2589L336.078 95.9454C337.607 94.7503 339.067 93.4421 340.448 92.0297C345.908 86.3786 349.872 78.7441 344.647 70.8398C343.578 69.2094 342.189 67.8925 340.594 66.9971C332.69 62.7606 329.061 72.6045 327.015 80.9389C326.618 82.5315 326.374 84.1699 326.287 85.8244C326.192 84.8036 326.097 83.8192 326.002 82.7983C325.647 79.0795 325.274 75.3607 324.894 71.6128C324.26 65.4731 323.665 59.3553 323.063 53.2084C322.968 52.1584 323.063 46.2083 322.303 45.5666C322.303 45.5666 313.772 38.1874 291.321 51.05C275.114 60.3106 272.954 47.4041 267.887 54.2875C266.7 55.9464 265.883 57.9137 265.506 60.0189C265.39 60.6948 265.316 61.3795 265.284 62.0679C265.272 62.1568 265.272 62.248 265.284 62.3377C265.208 63.847 265.183 65.3491 265.151 66.8221C265.031 81.0337 266.386 95.8798 271.231 109.078C277.121 125.076 292.708 140.855 308.915 133.396C313.981 131.055 318.522 127.285 322.677 123.282" stroke="black" stroke-width="5.47" stroke-miterlimit="10"/>
<path d="M276.591 94.6431C278.202 94.0218 278.98 91.6979 278.328 89.4528C277.676 87.2069 275.84 85.89 274.227 86.5113C272.615 87.1318 271.838 89.4557 272.49 91.7016C273.143 93.9474 274.979 95.2643 276.591 94.6431Z" fill="black"/>
<path d="M300.705 93.7542C302.317 93.1337 303.095 90.8098 302.443 88.5639C301.79 86.3181 299.954 85.0012 298.342 85.6224C296.73 86.2437 295.952 88.5676 296.605 90.8127C297.257 93.0586 299.093 94.3754 300.705 93.7542Z" fill="black"/>
<path d="M291.485 98.5631C291.485 98.5631 283.461 103.806 282.973 98.3662C282.821 96.6891 280.858 80.2608 280.858 80.2608C280.858 80.2608 274.373 72.3492 264.436 78.1972" stroke="black" stroke-width="5.47" stroke-miterlimit="10"/>
<path d="M289.68 75.6575C289.68 75.6575 302.638 68.2053 311.214 78.9461" stroke="black" stroke-width="5.47" stroke-miterlimit="10"/>
<path d="M301.562 135.225L303.05 144.019C298.357 148.999 295.038 156.138 296.007 163.656C296.869 170.321 301.606 176.526 306.464 180.019C314.583 185.852 325.381 185.393 334.121 181.681C342.665 178.035 350.056 171.115 355.414 162.672C357.937 158.59 359.618 153.899 360.329 148.956V148.868" stroke="black" stroke-width="5.47" stroke-miterlimit="10"/>
<path d="M303.05 144.018L305.951 159.9" stroke="black" stroke-width="5.47" stroke-miterlimit="10"/>
<path d="M344.071 103.586L348.454 137.092C348.886 140.372 350.326 143.364 352.512 145.525C354.698 147.686 357.485 148.873 360.367 148.868C374.007 151.413 387.462 155.127 400.621 159.981C452.029 179.071 483.67 232.388 492.607 291.962C496.324 316.907 496.603 343.07 491.935 367.876C489.282 381.84 485.444 397.525 476.533 407.981C464.962 421.617 447.203 416.002 433.529 409.84C391.077 390.831 355.769 357.012 325.28 318.292C308.978 297.584 287.913 280.988 287.913 280.988" stroke="black" stroke-width="5.47" stroke-miterlimit="10"/>
<path d="M123.057 375.555C118.294 375.504 114.146 371.078 113.075 364.917C110.96 352.798 110.403 334.058 125.837 329.967C145.122 324.863 159.955 349.042 167.225 364.326C169.67 369.43 166.902 375.993 162.349 375.993L123.057 375.555Z" fill="#D7E8F0"/>
<path d="M129.423 319.677C133.517 316.54 133.581 308.363 129.563 301.413C125.547 294.463 118.972 291.371 114.877 294.508C110.783 297.645 110.72 305.822 114.736 312.772C118.754 319.722 125.329 322.814 129.423 319.677Z" fill="#D7E8F0"/>
<path d="M446.354 428.483C446.057 428.534 445.721 428.585 445.43 428.666H445.316L400.267 428.396L332.671 427.995C332.411 427.995 332.158 427.995 331.905 427.995C331.402 427.981 330.901 427.937 330.404 427.863C334.983 427.251 339.229 424.798 342.393 420.937C345.556 417.076 347.436 412.053 347.7 406.754C347.713 406.48 347.713 406.205 347.7 405.93V405.507C347.682 400.322 346.112 395.302 343.256 391.292C340.4 387.283 336.432 384.529 332.019 383.493C331.556 383.362 331.05 383.282 330.562 383.201C331.328 383.121 332.088 383.063 332.829 383.063L389.937 383.413L400.45 383.464L414.631 383.544C419.486 384.055 424.001 386.631 427.294 390.772C430.586 394.911 432.419 400.317 432.434 405.93C432.434 406.989 432.365 408.047 432.225 409.094C431.55 414.439 429.231 419.326 425.691 422.868C422.15 426.41 417.624 428.372 412.933 428.396H447.247C445.271 428.396 445.822 428.396 446.354 428.483Z" fill="white"/>
<path d="M354.977 455.604C356.264 457.094 357.795 458.275 359.481 459.079C361.167 459.882 362.975 460.292 364.8 460.285H331.626C325.293 460.285 321.835 458.506 319.314 455.604C316.724 452.609 315.265 448.557 315.254 444.331C315.254 435.581 321.486 428.406 331.626 428.406H364.8C362.062 428.401 359.383 429.332 357.104 431.082C354.826 432.831 353.049 435.32 352.001 438.233C350.952 441.146 350.678 444.352 351.214 447.445C351.749 450.537 353.07 453.377 355.009 455.604H354.977Z" fill="#D7E8F0"/>
<path d="M464.537 406.331C464.529 409.699 463.848 413.019 462.549 416.036C461.62 418.317 460.347 420.389 458.787 422.154C456.215 425.088 452.985 427.141 449.458 428.082C448.003 428.469 446.516 428.665 445.024 428.665C445.328 428.585 445.658 428.534 445.949 428.483C445.417 428.425 444.866 428.403 446.848 428.403H412.528C417.222 428.383 421.752 426.421 425.295 422.877C428.838 419.333 431.158 414.442 431.832 409.094C431.972 408.047 432.042 406.989 432.041 405.93C432.026 400.316 430.193 394.91 426.899 390.769C423.605 386.629 419.088 384.053 414.232 383.544L432.757 383.653L445.132 383.734C450.304 383.784 455.248 386.189 458.884 390.423C462.52 394.657 464.552 400.376 464.537 406.331Z" fill="#3FBDF1"/>
<path d="M464.537 406.325C464.499 412.283 462.411 417.98 458.731 422.169C455.051 426.358 450.079 428.698 444.904 428.674L332.221 428.003C331.468 428.003 330.714 427.938 329.954 427.85C334.704 427.231 339.091 424.627 342.285 420.531C345.478 416.436 347.256 411.134 347.281 405.63C347.306 400.127 345.576 394.804 342.421 390.67C339.264 386.537 334.901 383.88 330.157 383.203C330.91 383.112 331.667 383.068 332.424 383.072L445.107 383.742C450.281 383.783 455.23 386.182 458.872 390.414C462.514 394.647 464.551 400.368 464.537 406.325Z" stroke="black" stroke-width="5.47" stroke-linecap="square" stroke-linejoin="round"/>
<path d="M432.028 405.923C432.018 411.88 429.959 417.589 426.3 421.801C422.642 426.014 417.683 428.385 412.509 428.396H332.335C331.578 428.391 330.821 428.343 330.068 428.251C334.814 427.602 339.189 424.971 342.364 420.857C345.538 416.742 347.291 411.43 347.291 405.927C347.291 400.424 345.538 395.112 342.364 390.997C339.189 386.883 334.814 384.252 330.068 383.603C330.822 383.523 331.582 383.465 332.335 383.465H412.509C417.68 383.478 422.636 385.848 426.294 390.056C429.952 394.265 432.013 399.97 432.028 405.923Z" stroke="black" stroke-width="5.47" stroke-linecap="square" stroke-linejoin="round"/>
<path d="M315.254 444.335C315.254 446.427 315.612 448.498 316.307 450.43C317.003 452.362 318.022 454.117 319.308 455.594C321.841 458.511 325.28 460.283 331.62 460.283H446.842C444.86 460.283 445.398 460.239 445.936 460.18C442.565 459.724 439.457 457.858 437.201 454.937C434.945 452.017 433.699 448.244 433.699 444.335C433.699 440.427 434.945 436.655 437.201 433.734C439.457 430.814 442.565 428.948 445.936 428.49C445.398 428.432 444.86 428.388 446.842 428.388H331.62C321.474 428.396 315.254 435.571 315.254 444.335Z" stroke="black" stroke-width="5.47" stroke-linecap="square" stroke-linejoin="round"/>
<path d="M350.911 444.335C350.919 448.562 352.382 452.613 354.977 455.601C357.573 458.59 361.091 460.273 364.762 460.283H444.328C444.86 460.283 445.398 460.239 445.936 460.18C442.565 459.724 439.457 457.858 437.201 454.937C434.945 452.017 433.699 448.244 433.699 444.335C433.699 440.427 434.945 436.655 437.201 433.734C439.457 430.814 442.565 428.948 445.936 428.49C445.398 428.432 444.86 428.388 444.328 428.388H364.762C361.092 428.4 357.574 430.084 354.979 433.072C352.383 436.06 350.921 440.11 350.911 444.335Z" stroke="black" stroke-width="5.47" stroke-linecap="square" stroke-linejoin="round"/>
<path d="M221.933 322.667H186.39C184.764 322.664 183.173 322.115 181.813 321.09C180.452 320.065 179.38 318.607 178.727 316.892C178.475 316.254 178.366 315.552 178.413 314.853C178.459 314.154 178.659 313.48 178.993 312.893C179.326 312.307 179.784 311.827 180.322 311.498C180.86 311.17 181.461 311.003 182.071 311.014H219.855C218.076 314.463 218.981 319.254 221.933 322.667Z" fill="#D7E8F0"/>
<path d="M244.916 318.451C244.914 319.566 244.529 320.635 243.844 321.423C243.16 322.212 242.231 322.656 241.262 322.658H221.933C218.981 319.253 218.076 314.462 219.855 310.991H236.924C238.548 310.992 240.137 311.535 241.499 312.554C242.86 313.575 243.935 315.028 244.593 316.737C244.798 317.279 244.908 317.861 244.916 318.451Z" fill="#3FBDF1"/>
<path d="M236.024 322.666C235.924 322.888 235.808 323.1 235.676 323.3C233.143 327.289 227.639 327.675 223.364 324.073C222.859 323.644 222.381 323.173 221.933 322.666C218.981 319.261 218.076 314.47 219.855 310.999C219.955 310.777 220.072 310.564 220.204 310.365C222.737 306.347 228.215 305.99 232.49 309.563C233.005 310.006 233.49 310.494 233.941 311.021C236.867 314.412 237.779 319.173 236.024 322.666Z" fill="white"/>
<path d="M253.853 344.142C253.846 345.258 253.456 346.326 252.768 347.113C252.08 347.9 251.149 348.342 250.179 348.342H212.882C214.681 344.856 213.782 340.102 210.824 336.675H245.86C247.487 336.676 249.078 337.221 250.44 338.245C251.802 339.269 252.875 340.728 253.53 342.443C253.739 342.977 253.848 343.555 253.853 344.142Z" fill="#3FBDF1"/>
<path d="M212.882 348.339H195.333C193.708 348.341 192.118 347.798 190.756 346.778C189.395 345.758 188.32 344.304 187.663 342.594C187.456 342.058 187.346 341.481 187.34 340.895C187.339 340.343 187.433 339.796 187.616 339.286C187.799 338.776 188.068 338.313 188.407 337.922C188.745 337.532 189.148 337.223 189.591 337.012C190.034 336.802 190.509 336.694 190.988 336.694H210.824C213.782 340.1 214.7 344.854 212.882 348.339Z" fill="#D7E8F0"/>
<path d="M212.882 348.34C212.8 348.569 212.691 348.785 212.559 348.982C210.026 352.992 204.541 353.357 200.273 349.777C199.756 349.333 199.269 348.846 198.816 348.318C195.884 344.913 194.984 340.159 196.739 336.652C196.84 336.427 196.956 336.213 197.087 336.01C199.62 332.021 205.124 331.635 209.393 335.244C209.901 335.669 210.379 336.14 210.824 336.652C213.782 340.101 214.7 344.855 212.882 348.34Z" fill="white"/>
<path d="M225.308 373.841H202.977C201.353 373.839 199.765 373.295 198.404 372.275C197.042 371.255 195.967 369.804 195.307 368.095C195.056 367.455 194.949 366.752 194.996 366.052C195.043 365.351 195.243 364.676 195.576 364.087C195.911 363.5 196.368 363.018 196.906 362.687C197.445 362.356 198.047 362.188 198.658 362.196H223.231C221.47 365.689 222.376 370.436 225.308 373.841Z" fill="#3FBDF1"/>
<path d="M261.497 369.669C261.492 370.778 261.105 371.841 260.422 372.623C259.738 373.404 258.812 373.842 257.849 373.84H225.308C222.376 370.435 221.47 365.681 223.231 362.173H253.504C255.131 362.173 256.722 362.72 258.085 363.743C259.446 364.768 260.52 366.226 261.174 367.941C261.382 368.486 261.493 369.074 261.497 369.669Z" fill="#D7E8F0"/>
<path d="M239.4 373.841C239.299 374.065 239.182 374.279 239.052 374.483C236.518 378.493 231.04 378.858 226.765 375.277C226.251 374.832 225.767 374.345 225.315 373.819C222.382 370.414 221.477 365.66 223.237 362.152C223.334 361.927 223.448 361.712 223.579 361.511C226.113 357.522 231.616 357.179 235.891 360.745C236.399 361.17 236.878 361.64 237.323 362.152C240.274 365.601 241.173 370.385 239.4 373.841Z" fill="white"/>
<path d="M70.6863 141.372L71.2436 141.555L71.0346 142.488C70.9022 142.123 70.7857 141.751 70.6863 141.372Z" fill="#353642"/>
<path d="M169.8 199.709C178.138 196.892 182.518 185.282 179.585 173.778C176.652 162.276 167.516 155.234 159.179 158.052C150.842 160.87 146.462 172.479 149.395 183.982C152.328 195.486 161.464 202.527 169.8 199.709Z" fill="#D7E8F0"/>
</svg>
